@startuml
'https://plantuml.com/class-diagram


package Beam {


class CrossSection {
}

class BeamDesign
}

class Loading {
}

BeamDesign o--> CrossSection
BeamDesign o--> Loading

package ShearZone {

interface DICGrid {
  X_IJa
  U_TIJa
  F_T
  time_T
  w_T
  t
}

DICCrackList --> BeamDesign

class DICUnstructuredPoints {
}

'class DICGrid {
'}

DICGrid --> DICUnstructuredPoints

class DICStateFields{
  U_TMNa
  omega_TMN
}

DICStateFields --> DICGrid

class DICCrack {
   index_range
}

DICCrackList --> DICStateFields

DICCrackList *--> DICCrack

DICCrack ..> DICGrid

DICCrack --> DICStressProfile

class DICAlign{
}

class DICCOR{
}

DICCrack --> DICCOR

DICStateFields --> DICAlign

DICCOR ..> DICGrid

DICStressProfile ..> DICGrid

DICAlign ..> DICGrid

}

@enduml